<svg width="30" height="25" viewBox="0 0 30 25" xmlns="http://www.w3.org/2000/svg" xmlns:sketch="http://www.bohemiancoding.com/sketch/ns"><title>Imported Layers 2</title><desc>Created with Sketch.</desc><path d="M14.583 6.26c0 .491.054.968.159 1.427-5.104-.261-9.629-2.753-12.658-6.541-.529.925-.831 2-.831 3.147 0 2.172 1.084 4.088 2.732 5.21-1.007-.032-1.954-.314-2.782-.783l-.001.079c0 3.033 2.117 5.563 4.926 6.138-.515.143-1.058.22-1.618.22-.396 0-.781-.039-1.155-.112.781 2.487 3.049 4.297 5.737 4.347-2.102 1.679-4.75 2.68-7.627 2.68-.496 0-.985-.03-1.465-.087 2.718 1.776 5.946 2.812 9.414 2.812 11.296 0 17.473-9.539 17.473-17.811 0-.271-.006-.541-.018-.81 1.2-.883 2.241-1.985 3.064-3.241-1.101.498-2.285.834-3.527.986 1.268-.775 2.242-2.001 2.7-3.463-1.187.717-2.501 1.238-3.9 1.519-1.12-1.217-2.716-1.977-4.483-1.977-3.392 0-6.141 2.803-6.141 6.26z" sketch:type="MSShapeGroup" fill="#000"/></svg>