<svg width="32" height="30" viewBox="0 0 32 30" xmlns="http://www.w3.org/2000/svg" xmlns:sketch="http://www.bohemiancoding.com/sketch/ns"><title>Fill 1 Copy 3</title><desc>Created with Sketch.</desc><path d="M31.836 22.442l-15.336-21.783c-.211-.434-.79-.434-1 0l-15.336 21.783c-.234.313-.202.692 0 1.005 8.762 8.737 22.91 8.737 31.672 0 .202-.314.234-.693 0-1.005zm-15.836-20.235l13.175 18.714c-7.383 7.128-18.997 7.159-26.418.095l13.242-18.809zm-14.487 20.578l.828-1.176c7.615 7.379 19.704 7.379 27.319 0l.828 1.176c-8.1 7.807-20.874 7.807-28.975 0zm17.655-7.38v-1.676c0-.452-.667-.452-.667 0v1.676c0 .452.667.452.667 0zm-2.834-6.2v-1.676c0-.452-.667-.452-.667 0v1.676c0 .452.667.452.667 0zm6.501 12.064v-1.676c0-.452-.667-.452-.667 0v1.676c0 .452.667.452.667 0zm-13.669-1.676v1.676c0 .452.667.452.667 0v-1.676c0-.452-.667-.452-.667 0zm7.168 1.676v-1.676c0-.452-.667-.452-.667 0v1.676c0 .452.667.452.667 0zm-3.501-7.54v1.676c0 .452.667.452.667 0v-1.676c0-.452-.667-.452-.667 0z" sketch:type="MSShapeGroup" fill="#50D6E3"/></svg>