<?xml version="1.0" encoding="utf-8"?>
<!-- Generator: Adobe Illustrator 18.1.1, SVG Export Plug-In . SVG Version: 6.00 Build 0)  -->
<svg version="1.1" id="Layer_1" xmlns:sketch="http://www.bohemiancoding.com/sketch/ns"
	 xmlns="http://www.w3.org/2000/svg" xmlns:xlink="http://www.w3.org/1999/xlink" x="0px" y="0px" viewBox="-279 403.9 36 34"
	 enable-background="new -279 403.9 36 34" xml:space="preserve">
<title>Imported Layers</title>
<desc>Created with Sketch.</desc>
<path sketch:type="MSShapeGroup" d="M-243.2,429.3l-17.3-24.7c-0.2-0.5-0.9-0.5-1.1,0l-17.3,24.7c-0.3,0.4-0.2,0.8,0,1.1
	c9.9,9.9,25.8,9.9,35.6,0C-243,430.1-242.9,429.7-243.2,429.3z M-261,406.4l14.8,21.2c-8.3,8.1-21.4,8.1-29.7,0.1L-261,406.4
	C-261,406.4-261,406.4-261,406.4z M-277.3,429.7l0.9-1.3c8.6,8.4,22.2,8.4,30.7,0l0.9,1.3C-253.8,438.6-268.2,438.6-277.3,429.7z
	 M-257.4,421.3v-1.9c0-0.5-0.8-0.5-0.8,0v1.9C-258.2,421.9-257.4,421.9-257.4,421.3z M-260.6,414.3v-1.9c0-0.5-0.8-0.5-0.8,0v1.9
	C-261.4,414.8-260.6,414.8-260.6,414.3z M-253.3,428v-1.9c0-0.5-0.8-0.5-0.8,0v1.9C-254.1,428.5-253.3,428.5-253.3,428z
	 M-268.7,426.1v1.9c0,0.5,0.8,0.5,0.8,0v-1.9C-267.9,425.6-268.7,425.6-268.7,426.1z M-260.6,428v-1.9c0-0.5-0.8-0.5-0.8,0v1.9
	C-261.4,428.5-260.6,428.5-260.6,428z M-264.6,419.5v1.9c0,0.5,0.8,0.5,0.8,0v-1.9C-263.8,418.9-264.6,418.9-264.6,419.5z"/>
</svg>
