<svg width="36" height="34" viewBox="0 0 36 34" xmlns="http://www.w3.org/2000/svg" xmlns:sketch="http://www.bohemiancoding.com/sketch/ns"><title>Imported Layers</title><desc>Created with Sketch.</desc><path d="M35.815 25.056l-17.253-24.687c-.237-.492-.889-.492-1.125 0l-17.253 24.687c-.263.355-.227.784 0 1.139 9.857 9.902 25.774 9.902 35.631 0 .227-.356.263-.785 0-1.139zm-17.816-22.933l14.822 21.209c-8.306 8.078-21.372 8.114-29.72.108l14.897-21.317h.001zm-16.298 23.322l.932-1.333c8.567 8.363 22.167 8.363 30.734 0l.931 1.333c-9.113 8.848-23.483 8.848-32.597 0zm19.862-8.364v-1.899c0-.512-.75-.512-.75 0v1.899c0 .512.75.512.75 0zm-3.188-7.027v-1.899c0-.512-.75-.512-.75 0v1.899c0 .512.75.512.75 0zm7.314 13.673v-1.899c0-.512-.75-.512-.75 0v1.899c0 .512.75.512.75 0zm-15.378-1.899v1.899c0 .512.75.512.75 0v-1.899c0-.512-.75-.512-.75 0zm8.064 1.899v-1.899c0-.512-.75-.512-.75 0v1.899c0 .512.75.512.75 0zm-3.939-8.545v1.899c0 .512.75.512.75 0v-1.899c0-.512-.75-.512-.75 0z" fill="#000" sketch:type="MSShapeGroup"/></svg>