<?xml version="1.0" encoding="UTF-8" standalone="no"?>
<svg width="40px" height="38px" viewBox="0 0 40 38" version="1.1" xmlns="http://www.w3.org/2000/svg" xmlns:xlink="http://www.w3.org/1999/xlink" xmlns:sketch="http://www.bohemiancoding.com/sketch/ns">
    <!-- Generator: Sketch 3.3.1 (12005) - http://www.bohemiancoding.com/sketch -->
    <title>Imported Layers Copy 2</title>
    <desc>Created with Sketch.</desc>
    <defs></defs>
    <g id="visuals" stroke="none" stroke-width="1" fill="none" fill-rule="evenodd" sketch:type="MSPage">
        <path d="M39.7946495,28.0041 L20.6246495,0.4123 C20.3608995,-0.137433333 19.6371495,-0.137433333 19.3746495,0.4123 L0.204649493,28.0041 C-0.0878505075,28.4005667 -0.0478505075,28.8806333 0.204649493,29.2771 C11.1571495,40.3439667 28.8421495,40.3439667 39.7946495,29.2771 C40.0471495,28.8793667 40.0871495,28.3993 39.7946495,28.0041 L39.7946495,28.0041 Z M19.9996495,2.3731 L36.4683995,26.0775 C27.2396495,35.1063 12.7221495,35.1455667 3.44589949,26.1978333 L19.9983995,2.3731 L19.9996495,2.3731 L19.9996495,2.3731 Z M1.89089949,28.4385667 L2.92589949,26.9489667 C12.4446495,36.2957 27.5558995,36.2957 37.0746495,26.9489667 L38.1096495,28.4385667 C27.9846495,38.3274333 12.0171495,38.3274333 1.89089949,28.4385667 L1.89089949,28.4385667 Z M23.9596495,19.0905667 L23.9596495,16.9676333 C23.9596495,16.3951 23.1258995,16.3951 23.1258995,16.9676333 L23.1258995,19.0905667 C23.1258995,19.6631 23.9596495,19.6631 23.9596495,19.0905667 L23.9596495,19.0905667 Z M20.4171495,11.2372333 L20.4171495,9.1143 C20.4171495,8.54176667 19.5833995,8.54176667 19.5833995,9.1143 L19.5833995,11.2372333 C19.5833995,11.8097667 20.4171495,11.8097667 20.4171495,11.2372333 L20.4171495,11.2372333 Z M28.5433995,26.5183 L28.5433995,24.3953667 C28.5433995,23.8228333 27.7096495,23.8228333 27.7096495,24.3953667 L27.7096495,26.5183 C27.7096495,27.0908333 28.5433995,27.0908333 28.5433995,26.5183 L28.5433995,26.5183 Z M11.4571495,24.3953667 L11.4571495,26.5183 C11.4571495,27.0908333 12.2908995,27.0908333 12.2908995,26.5183 L12.2908995,24.3953667 C12.2908995,23.8228333 11.4571495,23.8228333 11.4571495,24.3953667 L11.4571495,24.3953667 Z M20.4171495,26.5183 L20.4171495,24.3953667 C20.4171495,23.8228333 19.5833995,23.8228333 19.5833995,24.3953667 L19.5833995,26.5183 C19.5833995,27.0908333 20.4171495,27.0908333 20.4171495,26.5183 L20.4171495,26.5183 Z M16.0408995,16.9676333 L16.0408995,19.0905667 C16.0408995,19.6631 16.8746495,19.6631 16.8746495,19.0905667 L16.8746495,16.9676333 C16.8746495,16.3951 16.0408995,16.3951 16.0408995,16.9676333 L16.0408995,16.9676333 Z" id="Imported-Layers-Copy-2" fill="#000000" sketch:type="MSShapeGroup"></path>
    </g>
</svg>