<svg width="717" height="499" viewBox="0 0 717 499" xmlns="http://www.w3.org/2000/svg" xmlns:sketch="http://www.bohemiancoding.com/sketch/ns"><title>watermelons</title><desc>Created with Sketch.</desc><g sketch:type="MSLayerGroup" fill="#50D6E3"><g sketch:type="MSShapeGroup"><path d="M443.175 338.378l-.777 2.687 68.951-46.2-3.301-1.265 20.406 80.451 1.219-2.518c-33.062 14.787-71.789-.057-86.498-33.154zm89.477 34.598l-20.406-80.451c-.368-1.451-2.058-2.098-3.301-1.265l-68.951 46.2c-.877.588-1.205 1.723-.777 2.687 15.681 35.285 56.968 51.11 92.216 35.346.964-.431 1.478-1.494 1.219-2.518zm-84.049-38.036l-.388 1.344 62.375-41.795-1.651-.633 18.46 72.779.609-1.259c-30.351 13.574-65.903-.053-79.406-30.436zm53.387-23.508l-1.822 4.753c-.518 1.351 1.504 2.126 2.022.775l1.822-4.753c.518-1.351-1.504-2.126-2.022-.775zm1.486 21.279l-1.822 4.753c-.518 1.351 1.504 2.126 2.022.775l1.822-4.753c.518-1.351-1.504-2.126-2.022-.775zm-16.814-6.445l-1.822 4.753c-.518 1.351 1.504 2.126 2.022.775l1.822-4.753c.518-1.351-1.504-2.126-2.022-.775zm20.84 27.303l-1.822 4.753c-.518 1.351 1.504 2.126 2.022.775l1.822-4.753c.518-1.351-1.504-2.126-2.022-.775zm-18.888-7.24l-1.822 4.753c-.518 1.351 1.504 2.126 2.022.775l1.822-4.753c.518-1.351-1.504-2.126-2.022-.775zm-18.888-7.24l-1.822 4.753c-.518 1.351 1.504 2.126 2.022.775l1.822-4.753c.518-1.351-1.504-2.126-2.022-.775zm59.773 27.007l-18.46-72.779c-.184-.725-1.029-1.049-1.651-.633l-62.375 41.795c-.439.294-.603.861-.388 1.344 13.989 31.477 50.821 45.595 82.265 31.532.482-.215.739-.747.609-1.259z" id="watermelon" opacity=".5"/><path d="M281.174 231.952l1.608.561-26.039-43.03-.863 1.938 49.402-9.436-1.493-.82c8.016 20.375-2.109 43.114-22.615 50.787zm23.577-52.526l-49.402 9.436c-.891.17-1.333 1.162-.863 1.938l26.039 43.03c.331.548 1.01.784 1.608.561 21.862-8.181 32.657-32.423 24.11-54.145-.234-.594-.864-.94-1.493-.82zm-25.506 49.146l.804.28-23.556-38.926-.432.969 44.691-8.536-.746-.41c7.359 18.704-1.936 39.579-20.761 46.623zm-12.72-32.887l2.831 1.261c.805.358 1.333-.829.529-1.187l-2.831-1.261c-.805-.358-1.333.829-.529 1.187zm12.954-.147l2.831 1.261c.805.358 1.333-.829.529-1.187l-2.831-1.261c-.805-.358-1.333.829-.529 1.187zm-4.396 9.872l2.831 1.261c.805.358 1.333-.829.529-1.187l-2.831-1.261c-.805-.358-1.333.829-.529 1.187zm17.168-11.559l2.831 1.261c.805.358 1.333-.829.529-1.187l-2.831-1.261c-.805-.358-1.333.829-.529 1.187zm-4.938 11.09l2.831 1.261c.805.358 1.333-.829.529-1.187l-2.831-1.261c-.805-.358-1.333.829-.529 1.187zm-4.938 11.09l2.831 1.261c.805.358 1.333-.829.529-1.187l-2.831-1.261c-.805-.358-1.333.829-.529 1.187zm18.113-34.952l-44.691 8.536c-.445.085-.666.581-.432.969l23.556 38.926c.166.274.505.392.804.28 19.503-7.298 29.132-28.924 21.509-48.302-.117-.297-.432-.47-.746-.41zm366.1-107.604l-.698 1.553 45.129-22.191-1.856-1.028 5.098 50.031.947-1.415c-20.994 6.211-42.762-5.855-48.62-26.95zm50.269 28.059l-5.098-50.031c-.092-.902-1.042-1.429-1.856-1.028l-45.129 22.191c-.574.282-.869.938-.698 1.553 6.246 22.489 29.453 35.353 51.834 28.731.612-.181 1.012-.779.947-1.415zm-46.733-29.686l-.349.777 40.826-20.075-.928-.514 4.612 45.26.473-.708c-19.272 5.701-39.256-5.375-44.634-24.74zm33.867-9.807l-1.502 2.71c-.427.77.709 1.4 1.136.63l1.502-2.71c.427-.77-.709-1.4-1.136-.63zm-.982 12.916l-1.502 2.71c-.427.77.709 1.4 1.136.63l1.502-2.71c.427-.77-.709-1.4-1.136-.63zm-9.451-5.239l-1.502 2.71c-.427.77.709 1.4 1.136.63l1.502-2.71c.427-.77-.709-1.4-1.136-.63zm10.019 18.108l-1.502 2.71c-.427.77.709 1.4 1.136.63l1.502-2.71c.427-.77-.709-1.4-1.136-.63zm-10.617-5.885l-1.502 2.71c-.427.77.709 1.4 1.136.63l1.502-2.71c.427-.77-.709-1.4-1.136-.63zm-10.617-5.885l-1.502 2.71c-.427.77.709 1.4 1.136.63l1.502-2.71c.427-.77-.709-1.4-1.136-.63zm33.239 21.086l-4.612-45.26c-.046-.451-.521-.714-.928-.514l-40.826 20.075c-.287.141-.435.469-.349.777 5.572 20.062 26.275 31.537 46.241 25.631.306-.091.506-.389.473-.708z" id="watermelon" opacity=".3"/><path d="M133.911 399.051l-.003 1.307 25.15-29.606-1.654-.145 19.636 33.518.224-1.288c-13.014 10.887-32.424 9.192-43.353-3.787zm44.885 4.053l-19.636-33.518c-.354-.604-1.201-.678-1.654-.145l-25.15 29.606c-.32.377-.321.929-.003 1.307 11.651 13.837 32.344 15.644 46.218 4.037.379-.317.474-.861.224-1.288zm-42.879-6.294l-.001.653 22.751-26.783-.827-.072 17.763 30.322.112-.644c-11.947 9.995-29.765 8.438-39.798-3.476zm21.061-17.414l-.207 2.369c-.059.673.954.762 1.013.089l.207-2.369c.059-.673-.954-.762-1.013-.089zm3.427 9.368l-.207 2.369c-.059.673.954.762 1.013.089l.207-2.369c.059-.673-.954-.762-1.013-.089zm-8.427-.736l-.207 2.369c-.059.673.954.762 1.013.089l.207-2.369c.059-.673-.954-.762-1.013-.089zm12.947 9.589l-.207 2.369c-.059.673.954.762 1.013.089l.207-2.369c.059-.673-.954-.762-1.013-.089zm-9.467-.827l-.207 2.369c-.059.673.954.762 1.013.089l.207-2.369c.059-.673-.954-.762-1.013-.089zm-9.467-.827l-.207 2.369c-.059.673.954.762 1.013.089l.207-2.369c.059-.673-.954-.762-1.013-.089zm30.489 4.457l-17.763-30.322c-.177-.302-.601-.339-.827-.072l-22.751 26.783c-.16.188-.161.464-.001.653 10.394 12.343 28.854 13.956 41.231 3.602.19-.159.237-.431.112-.644z" id="watermelon" opacity=".2"/><path d="M533.544 218.181l-1.21 1.246 51.263-5.191-1.439-1.657-12.298 50.036 1.403-1.024c-22.431-1.547-39.319-20.983-37.718-43.411zm38.929 45.071l12.298-50.036c.222-.902-.515-1.75-1.439-1.657l-51.263 5.191c-.652.066-1.163.592-1.21 1.246-1.706 23.91 16.298 44.631 40.212 46.28.654.045 1.246-.387 1.403-1.024zm-34.952-45.371l-.605.623 46.375-4.696-.72-.828-11.126 45.265.701-.512c-20.592-1.421-36.095-19.263-34.626-39.851zm36.113 2.7l-2.385 2.073c-.678.589.204 1.604.882 1.015l2.385-2.073c.678-.589-.204-1.604-.882-1.015zm-5.396 12.093l-2.385 2.073c-.678.589.204 1.604.882 1.015l2.385-2.073c.678-.589-.204-1.604-.882-1.015zm-7.332-8.438l-2.385 2.073c-.678.589.204 1.604.882 1.015l2.385-2.073c.678-.589-.204-1.604-.882-1.015zm3.45 21.042l-2.385 2.073c-.678.589.204 1.604.882 1.015l2.385-2.073c.678-.589-.204-1.604-.882-1.015zm-8.236-9.479l-2.385 2.073c-.678.589.204 1.604.882 1.015l2.385-2.073c.678-.589-.204-1.604-.882-1.015zm-8.236-9.479l-2.385 2.073c-.678.589.204 1.604.882 1.015l2.385-2.073c.678-.589-.204-1.604-.882-1.015zm24.869 32.243l11.126-45.265c.111-.451-.258-.875-.72-.828l-46.375 4.696c-.326.033-.582.296-.605.623-1.522 21.33 14.539 39.814 35.872 41.286.327.023.623-.194.701-.512z" id="watermelon" opacity=".3"/><path d="M643.24 242.679l1.723 1.856-3.685-75.038-2.521 1.971 71.93 21.689-1.385-2.12c-3.948 32.546-33.525 55.667-66.061 51.642zm68.571-53.28l-71.93-21.689c-1.297-.391-2.588.618-2.521 1.971l3.685 75.038c.047.955.774 1.739 1.723 1.856 34.687 4.291 66.219-20.358 70.428-55.056.115-.949-.47-1.844-1.385-2.12zm-68.707 47.466l.861.928-3.334-67.882-1.261.985 65.071 19.621-.693-1.06c-3.625 29.877-30.777 51.102-60.645 47.408zm6.661-52.38l2.838 3.63c.807 1.032 2.35-.175 1.544-1.207l-2.838-3.63c-.807-1.032-2.35.175-1.544 1.207zm17.201 8.771l2.838 3.63c.807 1.032 2.35-.175 1.544-1.207l-2.838-3.63c-.807-1.032-2.35.175-1.544 1.207zm-12.841 10.038l2.838 3.63c.807 1.032 2.35-.175 1.544-1.207l-2.838-3.63c-.807-1.032-2.35.175-1.544 1.207zm30.901-3.434l2.838 3.63c.807 1.032 2.35-.175 1.544-1.207l-2.838-3.63c-.807-1.032-2.35.175-1.544 1.207zm-14.425 11.277l2.838 3.63c.807 1.032 2.35-.175 1.544-1.207l-2.838-3.63c-.807-1.032-2.35.175-1.544 1.207zm-14.425 11.277l2.838 3.63c.807 1.032 2.35-.175 1.544-1.207l-2.838-3.63c-.807-1.032-2.35.175-1.544 1.207zm48.829-33.776l-65.071-19.621c-.648-.196-1.294.309-1.261.985l3.334 67.882c.023.477.387.869.861.928 30.944 3.828 59.073-18.162 62.828-49.115.058-.474-.235-.922-.693-1.06zm-397.238-112.71l1.723 1.856-3.685-75.038-2.521 1.971 71.93 21.689-1.385-2.12c-3.948 32.546-33.525 55.667-66.061 51.642zm68.571-53.28l-71.93-21.689c-1.297-.391-2.588.618-2.521 1.971l3.685 75.038c.047.955.774 1.739 1.723 1.856 34.687 4.291 66.219-20.358 70.428-55.056.115-.949-.47-1.844-1.385-2.12zm-68.707 47.466l.861.928-3.334-67.882-1.261.985 65.071 19.621-.693-1.06c-3.625 29.877-30.777 51.102-60.645 47.408zm6.661-52.38l2.838 3.63c.807 1.032 2.35-.175 1.544-1.207l-2.838-3.63c-.807-1.032-2.35.175-1.544 1.207zm17.201 8.771l2.838 3.63c.807 1.032 2.35-.175 1.544-1.207l-2.838-3.63c-.807-1.032-2.35.175-1.544 1.207zm-12.841 10.038l2.838 3.63c.807 1.032 2.35-.175 1.544-1.207l-2.838-3.63c-.807-1.032-2.35.175-1.544 1.207zm30.901-3.434l2.838 3.63c.807 1.032 2.35-.175 1.544-1.207l-2.838-3.63c-.807-1.032-2.35.175-1.544 1.207zm-14.425 11.277l2.838 3.63c.807 1.032 2.35-.175 1.544-1.207l-2.838-3.63c-.807-1.032-2.35.175-1.544 1.207zm-14.425 11.277l2.838 3.63c.807 1.032 2.35-.175 1.544-1.207l-2.838-3.63c-.807-1.032-2.35.175-1.544 1.207zm48.829-33.776l-65.071-19.621c-.648-.196-1.294.309-1.261.985l3.334 67.882c.023.477.387.869.861.928 30.944 3.828 59.073-18.162 62.828-49.115.058-.474-.235-.922-.693-1.06z" id="watermelon" opacity=".5"/><path d="M236.582 363.357l2.321-.076-54.148-42.585-.153 2.93 58.277-36.734-2.3-.316c20.149 22.309 18.36 56.686-3.997 76.782zm4.372-79.504l-58.277 36.734c-1.051.662-1.129 2.162-.153 2.93l54.148 42.585c.689.542 1.669.51 2.321-.076 23.834-21.425 25.742-58.074 4.261-81.857-.587-.65-1.559-.784-2.3-.316zm-8.478 76.1l1.16-.038-48.985-38.524-.076 1.465 52.72-33.231-1.15-.158c18.497 20.48 16.854 52.038-3.669 70.486zm-32.244-36.117l4.219.22c1.199.062 1.293-1.732.093-1.794l-4.219-.22c-1.199-.062-1.293 1.732-.093 1.794zm16.417-6.628l4.219.22c1.199.062 1.293-1.732.093-1.794l-4.219-.22c-1.199-.062-1.293 1.732-.093 1.794zm-.777 14.925l4.219.22c1.199.062 1.293-1.732.093-1.794l-4.219-.22c-1.199-.062-1.293 1.732-.093 1.794zm16.211-23.451l4.219.22c1.199.062 1.293-1.732.093-1.794l-4.219-.22c-1.199-.062-1.293 1.732-.093 1.794zm-.873 16.766l4.219.22c1.199.062 1.293-1.732.093-1.794l-4.219-.22c-1.199-.062-1.293 1.732-.093 1.794zm-.873 16.766l4.219.22c1.199.062 1.293-1.732.093-1.794l-4.219-.22c-1.199-.062-1.293 1.732-.093 1.794zm5.995-54.109l-52.72 33.231c-.525.331-.564 1.081-.076 1.465l48.985 38.524c.345.271.834.255 1.16-.038 21.262-19.113 22.964-51.807 3.801-73.024-.294-.325-.779-.392-1.15-.158z" id="watermelon" opacity=".4"/><path d="M95.959 322.242l.827 1.188 3.895-42.766-1.584.915 38.985 18.009-.615-1.31c-4.828 18.107-23.412 28.837-41.508 23.965zm43.058-24.692l-38.985-18.009c-.703-.325-1.514.144-1.584.915l-3.895 42.766c-.05.544.3 1.046.827 1.188 19.291 5.193 39.104-6.246 44.251-25.549.141-.528-.119-1.081-.615-1.31zm-42.672 21.391l.414.594 3.523-38.688-.792.457 35.267 16.292-.308-.655c-4.433 16.622-21.493 26.472-38.104 22zm7.945-29.117l1.317 2.281c.374.648 1.344.088.97-.56l-1.317-2.281c-.374-.648-1.344-.088-.97.56zm9.037 6.336l1.317 2.281c.374.648 1.344.088.97-.56l-1.317-2.281c-.374-.648-1.344-.088-.97.56zm-8.068 4.658l1.317 2.281c.374.648 1.344.088.97-.56l-1.317-2.281c-.374-.648-1.344-.088-.97.56zm17.764.519l1.317 2.281c.374.648 1.344.088.97-.56l-1.317-2.281c-.374-.648-1.344-.088-.97.56zm-9.064 5.233l1.317 2.281c.374.648 1.344.088.97-.56l-1.317-2.281c-.374-.648-1.344-.088-.97.56zm-9.064 5.233l1.317 2.281c.374.648 1.344.088.97-.56l-1.317-2.281c-.374-.648-1.344-.088-.97.56zm30.33-15.226l-35.267-16.292c-.351-.162-.757.072-.792.457l-3.523 38.688c-.025.272.15.523.414.594 17.21 4.633 34.884-5.572 39.476-22.792.07-.264-.059-.541-.308-.655zm-14.051-208.893l-1.343.538 40.775 13.422-.534-1.749-26.317 33.914 1.415-.304c-16.548-8.779-22.814-29.294-13.996-45.821zm14.355 47.495l26.317-33.914c.474-.611.201-1.507-.534-1.749l-40.775-13.422c-.519-.171-1.086.057-1.343.538-9.401 17.62-2.721 39.491 14.921 48.85.482.256 1.08.128 1.415-.304zm-11.226-46.376l-.672.269 36.887 12.141-.267-.874-23.807 30.68.707-.152c-15.191-8.059-20.943-26.893-12.848-42.064zm26.57 14.293l-2.518.769c-.716.219-.389 1.289.327 1.071l2.518-.769c.716-.219.389-1.289-.327-1.071zm-8.205 7.375l-2.518.769c-.716.219-.389 1.289.327 1.071l2.518-.769c.716-.219.389-1.289-.327-1.071zm-2.721-8.907l-2.518.769c-.716.219-.389 1.289.327 1.071l2.518-.769c.716-.219.389-1.289-.327-1.071zm-4.505 17.184l-2.518.769c-.716.219-.389 1.289.327 1.071l2.518-.769c.716-.219.389-1.289-.327-1.071zm-3.056-10.006l-2.518.769c-.716.219-.389 1.289.327 1.071l2.518-.769c.716-.219.389-1.289-.327-1.071zm-3.056-10.006l-2.518.769c-.716.219-.389 1.289.327 1.071l2.518-.769c.716-.219.389-1.289-.327-1.071zm8.001 32.967l23.807-30.68c.237-.306.101-.753-.267-.874l-36.887-12.141c-.259-.085-.543.028-.672.269-8.386 15.718-2.427 35.229 13.311 43.579.241.128.54.064.707-.152z" id="watermelon" opacity=".2"/><path d="M109.118 210.823l.966-1.732-55.002 20.897 2.078 1.401-1.245-58.825-1.244 1.545c25.197-4.932 49.574 11.505 54.447 36.714zm-56.274-38.187l1.245 58.825c.022 1.061 1.086 1.778 2.078 1.401l55.002-20.897c.7-.266 1.108-.997.966-1.732-5.195-26.875-31.184-44.4-58.046-39.141-.734.144-1.26.796-1.244 1.545zm51.977 39.695l.483-.866-49.757 18.905 1.039.701-1.126-53.216-.622.772c23.131-4.528 45.51 10.562 49.983 33.704zm-40.628 7.71l2.017-2.992c.573-.85-.699-1.708-1.272-.858l-2.017 2.992c-.573.85.699 1.708 1.272.858zm2.372-14.934l2.017-2.992c.573-.85-.699-1.708-1.272-.858l-2.017 2.992c-.573.85.699 1.708 1.272.858zm10.584 7.137l2.017-2.992c.573-.85-.699-1.708-1.272-.858l-2.017 2.992c-.573.85.699 1.708 1.272.858zm-10.033-22.186l2.017-2.992c.573-.85-.699-1.708-1.272-.858l-2.017 2.992c-.573.85.699 1.708 1.272.858zm11.889 8.017l2.017-2.992c.573-.85-.699-1.708-1.272-.858l-2.017 2.992c-.573.85.699 1.708 1.272.858zm11.889 8.017l2.017-2.992c.573-.85-.699-1.708-1.272-.858l-2.017 2.992c-.573.85.699 1.708 1.272.858zm-36.971-28.2l1.126 53.216c.011.53.543.889 1.039.701l49.757-18.905c.35-.133.554-.499.483-.866-4.635-23.975-27.819-39.608-51.783-34.917-.367.072-.63.398-.622.772z" id="watermelon" opacity=".3"/><path d="M21.03 128.595l1.96 1.329-19.138-67.609-1.883 2.326 70.113 4.64-1.708-1.641c3.246 30.49-18.846 57.781-49.344 60.955zm51.286-62.975l-70.113-4.64c-1.264-.084-2.228 1.107-1.883 2.326l19.138 67.609c.244.86 1.071 1.422 1.96 1.329 32.514-3.384 56.067-32.478 52.606-64.984-.095-.889-.816-1.582-1.708-1.641zm-52.633 57.705l.98.664-17.313-61.162-.942 1.163 63.427 4.198-.854-.82c2.979 27.99-17.302 53.043-45.298 55.957zm-4.944-49.137l3.349 2.711c.952.771 2.105-.654 1.153-1.425l-3.349-2.711c-.952-.771-2.105.654-1.153 1.425zm17.52 4.377l3.349 2.711c.952.771 2.105-.654 1.153-1.425l-3.349-2.711c-.952-.771-2.105.654-1.153 1.425zm-9.592 11.849l3.349 2.711c.952.771 2.105-.654 1.153-1.425l-3.349-2.711c-.952-.771-2.105.654-1.153 1.425zm27.439-9.627l3.349 2.711c.952.771 2.105-.654 1.153-1.425l-3.349-2.711c-.952-.771-2.105.654-1.153 1.425zm-10.775 13.31l3.349 2.711c.952.771 2.105-.654 1.153-1.425l-3.349-2.711c-.952-.771-2.105.654-1.153 1.425zm-10.775 13.31l3.349 2.711c.952.771 2.105-.654 1.153-1.425l-3.349-2.711c-.952-.771-2.105.654-1.153 1.425zm37.396-41.049l-63.427-4.198c-.632-.042-1.114.554-.942 1.163l17.313 61.162c.122.43.536.711.98.664 29.005-3.019 50.016-28.974 46.929-57.971-.047-.444-.408-.791-.854-.82z" id="watermelon" opacity=".5"/><path d="M427.72 256.07l.56-1.004-31.877 12.111 1.204.812-.722-34.093-.721.895c14.603-2.859 28.731 6.668 31.555 21.278zm-32.614-22.132l.722 34.093c.013.615.63 1.03 1.204.812l31.877-12.111c.406-.154.642-.578.56-1.004-3.011-15.576-18.073-25.732-33.641-22.685-.426.083-.73.461-.721.895zm30.123 23.005l.28-.502-28.837 10.956.602.406-.653-30.842-.36.448c13.406-2.624 26.376 6.121 28.968 19.533zm-23.546 4.468l1.169-1.734c.332-.493-.405-.99-.737-.497l-1.169 1.734c-.332.493.405.99.737.497zm1.375-8.655l1.169-1.734c.332-.493-.405-.99-.737-.497l-1.169 1.734c-.332.493.405.99.737.497zm6.134 4.136l1.169-1.734c.332-.493-.405-.99-.737-.497l-1.169 1.734c-.332.493.405.99.737.497zm-5.815-12.858l1.169-1.734c.332-.493-.405-.99-.737-.497l-1.169 1.734c-.332.493.405.99.737.497zm6.891 4.646l1.169-1.734c.332-.493-.405-.99-.737-.497l-1.169 1.734c-.332.493.405.99.737.497zm6.891 4.646l1.169-1.734c.332-.493-.405-.99-.737-.497l-1.169 1.734c-.332.493.405.99.737.497zm-21.427-16.344l.653 30.842c.007.307.315.515.602.406l28.837-10.956c.203-.077.321-.289.28-.502-2.686-13.895-16.123-22.955-30.011-20.237-.213.042-.365.231-.36.448zm-205.883-55.846l1.032.506-13.757-31.201-.748 1.245 34.008-2.498-.931-.673c3.616 14.434-5.161 29.039-19.603 32.621zm20.4-33.723l-34.008 2.498c-.613.045-.996.682-.748 1.245l13.757 31.201c.175.397.611.611 1.032.506 15.397-3.819 24.754-19.389 20.899-34.778-.105-.421-.499-.705-.931-.673zm-21.403 31.281l.516.253-12.445-28.226-.374.622 30.765-2.26-.466-.337c3.319 13.25-4.738 26.658-17.996 29.947zm-5.69-23.281l1.793 1.077c.509.306.968-.456.458-.762l-1.793-1.077c-.509-.306-.968.456-.458.762zm8.715.922l1.793 1.077c.509.306.968-.456.458-.762l-1.793-1.077c-.509-.306-.968.456-.458.762zm-3.811 6.341l1.793 1.077c.509.306.968-.456.458-.762l-1.793-1.077c-.509-.306-.968.456-.458.762zm12.537-6.477l1.793 1.077c.509.306.968-.456.458-.762l-1.793-1.077c-.509-.306-.968.456-.458.762zm-4.281 7.123l1.793 1.077c.509.306.968-.456.458-.762l-1.793-1.077c-.509-.306-.968.456-.458.762zm-4.281 7.123l1.793 1.077c.509.306.968-.456.458-.762l-1.793-1.077c-.509-.306-.968.456-.458.762zm15.204-22.249l-30.765 2.26c-.307.023-.498.341-.374.622l12.445 28.226c.088.199.305.305.516.253 13.736-3.407 22.083-17.297 18.644-31.025-.053-.21-.249-.353-.466-.337zm400.133-22.06l1.032.506-13.757-31.201-.748 1.245 34.008-2.498-.931-.673c3.616 14.434-5.161 29.039-19.603 32.621zm20.4-33.723l-34.008 2.498c-.613.045-.996.682-.748 1.245l13.757 31.201c.175.397.611.611 1.032.506 15.397-3.819 24.754-19.389 20.899-34.778-.105-.421-.499-.705-.931-.673zm-21.403 31.281l.516.253-12.445-28.226-.374.622 30.765-2.26-.466-.337c3.319 13.25-4.738 26.658-17.996 29.947zm-5.69-23.281l1.793 1.077c.509.306.968-.456.458-.762l-1.793-1.077c-.509-.306-.968.456-.458.762zm8.715.922l1.793 1.077c.509.306.968-.456.458-.762l-1.793-1.077c-.509-.306-.968.456-.458.762zm-3.811 6.341l1.793 1.077c.509.306.968-.456.458-.762l-1.793-1.077c-.509-.306-.968.456-.458.762zm12.537-6.477l1.793 1.077c.509.306.968-.456.458-.762l-1.793-1.077c-.509-.306-.968.456-.458.762zm-4.281 7.123l1.793 1.077c.509.306.968-.456.458-.762l-1.793-1.077c-.509-.306-.968.456-.458.762zm-4.281 7.123l1.793 1.077c.509.306.968-.456.458-.762l-1.793-1.077c-.509-.306-.968.456-.458.762zm15.204-22.249l-30.765 2.26c-.307.023-.498.341-.374.622l12.445 28.226c.088.199.305.305.516.253 13.736-3.407 22.083-17.297 18.644-31.025-.053-.21-.249-.353-.466-.337zm-13.452 251.861l1.032.506-13.757-31.201-.748 1.245 34.008-2.498-.931-.673c3.616 14.434-5.161 29.039-19.603 32.621zm20.4-33.723l-34.008 2.498c-.613.045-.996.682-.748 1.245l13.757 31.201c.175.397.611.611 1.032.506 15.397-3.819 24.754-19.389 20.899-34.778-.105-.421-.499-.705-.931-.673zm-21.403 31.281l.516.253-12.445-28.226-.374.622 30.765-2.26-.466-.337c3.319 13.25-4.738 26.658-17.996 29.947zm-5.69-23.281l1.793 1.077c.509.306.968-.456.458-.762l-1.793-1.077c-.509-.306-.968.456-.458.762zm8.715.922l1.793 1.077c.509.306.968-.456.458-.762l-1.793-1.077c-.509-.306-.968.456-.458.762zm-3.811 6.341l1.793 1.077c.509.306.968-.456.458-.762l-1.793-1.077c-.509-.306-.968.456-.458.762zm12.537-6.477l1.793 1.077c.509.306.968-.456.458-.762l-1.793-1.077c-.509-.306-.968.456-.458.762zm-4.281 7.123l1.793 1.077c.509.306.968-.456.458-.762l-1.793-1.077c-.509-.306-.968.456-.458.762zm-4.281 7.123l1.793 1.077c.509.306.968-.456.458-.762l-1.793-1.077c-.509-.306-.968.456-.458.762zm15.204-22.249l-30.765 2.26c-.307.023-.498.341-.374.622l12.445 28.226c.088.199.305.305.516.253 13.736-3.407 22.083-17.297 18.644-31.025-.053-.21-.249-.353-.466-.337z" opacity=".2"/><path d="M444.751 156.184l1.419.858-15.838-46.563-1.232 1.695 49.178.692-1.254-1.085c3.379 21.195-11.071 41.075-32.274 44.404zm33.558-45.887l-49.178-.692c-.887-.012-1.517.855-1.232 1.695l15.838 46.563c.202.592.801.955 1.419.858 22.604-3.548 38.009-24.743 34.407-47.339-.098-.618-.628-1.076-1.254-1.085zm-34.691 42.252l.709.429-14.328-42.123-.616.847 44.489.626-.627-.542c3.101 19.457-10.163 37.707-29.627 40.763zm-5.244-34.167l2.44 1.773c.693.504 1.448-.534.754-1.038l-2.44-1.773c-.693-.504-1.448.534-.754 1.038zm12.406 2.422l2.44 1.773c.693.504 1.448-.534.754-1.038l-2.44-1.773c-.693-.504-1.448.534-.754 1.038zm-6.273 8.631l2.44 1.773c.693.504 1.448-.534.754-1.038l-2.44-1.773c-.693-.504-1.448.534-.754 1.038zm18.829-7.728l2.44 1.773c.693.504 1.448-.534.754-1.038l-2.44-1.773c-.693-.504-1.448.534-.754 1.038zm-7.047 9.696l2.44 1.773c.693.504 1.448-.534.754-1.038l-2.44-1.773c-.693-.504-1.448.534-.754 1.038zm-4.607 11.469l.754-1.038-2.44-1.773-.754 1.038 2.44 1.773zm-2.44-1.773l2.44 1.773c.693.504 1.448-.534.754-1.038l-2.44-1.773c-.693-.504-1.448.534-.754 1.038zm24.646-30.055l-44.489-.626c-.443-.006-.759.428-.616.847l14.328 42.123c.101.296.4.477.709.429 20.165-3.166 33.907-22.073 30.694-42.231-.049-.309-.314-.538-.627-.542z" opacity=".3"/></g><path d="M266 453v5l92-130h-6l92 130v-5c-49.153 49.324-128.847 49.324-178 0zm184 0l-92-130c-1.264-2.588-4.738-2.588-6 0l-92 130c-1.406 1.865-1.214 4.129 0 6 52.564 52.144 137.436 52.144 190 0 1.214-1.871 1.406-4.135 0-6zm-177-11v3l83-118h-3l83 118v-3c-45.011 45.297-117.989 45.297-163 0zm80-78v10c0 2.697 4 2.697 4 0v-10c0-2.697-4-2.697-4 0zm17 37v10c0 2.697 4 2.697 4 0v-10c0-2.697-4-2.697-4 0zm-34 0v10c0 2.697 4 2.697 4 0v-10c0-2.697-4-2.697-4 0zm56 35v10c0 2.697 4 2.697 4 0v-10c0-2.697-4-2.697-4 0zm-39 0v10c0 2.697 4 2.697 4 0v-10c0-2.697-4-2.697-4 0zm-39 0v10c0 2.697 4 2.697 4 0v-10c0-2.697-4-2.697-4 0zm126 7l-83-118c-1.134-1.294-2.868-1.294-4 0l-83 118c-.203.911-.107 2.045 1 3 46.216 46.745 121.784 46.745 168 0 1.107-.955 1.203-2.089 1-3z" sketch:type="MSShapeGroup"/></g></svg>