<svg width="28" height="28" viewBox="0 0 28 28" xmlns="http://www.w3.org/2000/svg" xmlns:sketch="http://www.bohemiancoding.com/sketch/ns"><title>Fill 58</title><desc>Created with Sketch.</desc><path d="M26 24c0 1.087-.913 2-2 2l-20.065.033c-1.087 0-1.968-.881-1.968-1.968l.033-20.065c0-1.087.913-2 2-2h11v-2h-11c-2.173 0-4 2.221-4 4.394v19.671c0 2.173 1.762 3.935 3.935 3.935h19.671c2.173 0 4.394-1.827 4.394-4v-11h-2v11zm.979-24h-6.979c-.567.001-.999.459-1 1-.001.541.433 1.001 1 1l4.395-.032-15.087 14.389c-.4.381-.4.998 0 1.379.398.381 1.046.381 1.445 0l15.218-14.514.029 4.778c-.001.541.433 1.001 1 1 .567-.001.999-.459 1-1v-7.025c.001-.541-.454-.976-1.021-.975z" sketch:type="MSShapeGroup" fill="#000"/></svg>