<?xml version="1.0" encoding="UTF-8" standalone="no"?>
<svg width="30px" height="30px" viewBox="0 0 30 30" version="1.1" xmlns="http://www.w3.org/2000/svg" xmlns:xlink="http://www.w3.org/1999/xlink" xmlns:sketch="http://www.bohemiancoding.com/sketch/ns">
    <!-- Generator: Sketch 3.4.2 (15857) - http://www.bohemiancoding.com/sketch -->
    <title>Shape</title>
    <desc>Created with Sketch.</desc>
    <defs></defs>
    <g id="Page-1" stroke="none" stroke-width="1" fill="none" fill-rule="evenodd" sketch:type="MSPage">
        <g id="Desktop-HD-Copy-11" sketch:type="MSArtboardGroup" transform="translate(-440.000000, -4364.000000)" fill="#FFFFFF">
            <g id="Group" sketch:type="MSLayerGroup" transform="translate(419.000000, 4363.000000)">
                <g id="Shape-+-dribbble" transform="translate(0.000000, 1.000000)" sketch:type="MSShapeGroup">
                    <path d="M36,30 C27.716,30 21,23.2855524 21,15.0010001 C21,6.71444763 27.716,0 36,0 C44.284,0 51,6.71444763 51,15.0010001 C51,23.2855524 44.284,30 36,30 L36,30 Z M47.872,16.6811121 C46.402,16.3130875 43.63,15.8270551 40.466,16.215081 C42.12,20.5013668 42.8,23.8675912 42.956,24.7516501 C45.568,22.8795253 47.4,20.0033336 47.872,16.6811121 L47.872,16.6811121 Z M40.808,25.9837322 C40.202,22.6775118 39.15,19.5573038 37.952,16.7011134 C34.584,17.6371758 31.098,19.815321 28.456,24.2636176 C30.522,25.9477298 33.124,26.9998 35.998,26.9998 C37.712,27.0018001 39.334,26.6297753 40.808,25.9837322 L40.808,25.9837322 Z M24,15.0010001 C24,17.8911927 25.064,20.5113674 26.766,22.5815054 C28.1,20.3793586 31.31,16.2490833 37.046,14.6229749 C36.662,13.8009201 36.274,12.9848657 35.88,12.2288153 C30.432,14.3329555 26.328,14.4969665 24.048,14.3149543 C24.036,14.5449697 24,14.7669845 24,15.0010001 L24,15.0010001 Z M24.374,12.1488099 C27.418,12.1768118 31.428,11.6487766 34.89,10.410694 C33.31,7.60850723 31.81,5.41436096 30.9,4.17827855 C27.67,5.70238016 25.246,8.61657444 24.374,12.1488099 L24.374,12.1488099 Z M36,3.00020001 C35.016,3.00020001 34.074,3.15221015 33.158,3.37622508 C34.77,5.34635642 36.118,7.39849323 37.266,9.42062804 C40.376,7.95053004 42.41,6.4004267 43.356,5.58437229 C41.32,3.99026602 38.788,3.00020001 36,3.00020001 L36,3.00020001 Z M45.126,7.2944863 C42.674,8.95059671 40.374,10.2386826 38.24,11.2227482 C38.744,12.2068138 39.184,13.1668778 39.594,14.1069405 C42.008,13.7989199 44.79,13.9449297 47.974,14.7589839 C47.916,11.9067938 46.844,9.32462164 45.126,7.2944863 L45.126,7.2944863 Z" id="Shape"></path>
                </g>
            </g>
        </g>
    </g>
</svg>