<?xml version="1.0" encoding="UTF-8" standalone="no"?>
<svg width="32px" height="26px" viewBox="0 0 32 26" version="1.1" xmlns="http://www.w3.org/2000/svg" xmlns:xlink="http://www.w3.org/1999/xlink" xmlns:sketch="http://www.bohemiancoding.com/sketch/ns">
    <!-- Generator: Sketch 3.4.2 (15857) - http://www.bohemiancoding.com/sketch -->
    <title>Shape</title>
    <desc>Created with Sketch.</desc>
    <defs></defs>
    <g id="Page-1" stroke="none" stroke-width="1" fill="none" fill-rule="evenodd" sketch:type="MSPage">
        <g id="Desktop-HD-Copy-11" sketch:type="MSArtboardGroup" transform="translate(-439.000000, -4503.000000)" fill="#FFFFFF">
            <g id="Group" sketch:type="MSLayerGroup" transform="translate(419.000000, 4363.000000)">
                <g id="Shape-+-Twitter" transform="translate(6.000000, 140.000000)" sketch:type="MSShapeGroup">
                    <path d="M46,2.99519911 L43,5.98839741 C43,5.98839741 43,5.71628848 43,6.48659686 C43,7.03281554 42.912,7.5550246 42.784,8.06522886 C42.714,12.1848781 41.4,17.6450641 36,21.9547894 C25.378,30.4321833 14,22.9531892 14,22.9531892 C23,22.9531892 23,19.95799 23,19.95799 C21,19.95799 17,15.9683928 17,15.9683928 C18,16.9647917 20,15.9683928 20,15.9683928 C15,12.9731937 15,9.97799462 15,9.97799462 C16,10.9763943 18,9.97799462 18,9.97799462 C13,5.98839741 16,0.998399702 16,0.998399702 C17,5.98839741 30,7.98319602 30,7.98319602 L30.166,7.90116318 C30.064,7.44297975 30,6.47459206 30,5.98839741 C30,2.40496281 32.91,9.09858958e-13 36.5,9.09858958e-13 C38.476,9.09858958e-13 40.224,0.898359652 41.416,2.28891635 L42,1.9967994 L45,0 L43,3.99159801 L46,2.99519911 L46,2.99519911 Z" id="Shape"></path>
                </g>
            </g>
        </g>
    </g>
</svg>