<?xml version="1.0" encoding="UTF-8" standalone="no"?>
<svg width="32px" height="32px" viewBox="0 0 32 32" version="1.1" xmlns="http://www.w3.org/2000/svg" xmlns:xlink="http://www.w3.org/1999/xlink" xmlns:sketch="http://www.bohemiancoding.com/sketch/ns">
    <!-- Generator: Sketch 3.4.2 (15857) - http://www.bohemiancoding.com/sketch -->
    <title>icon-codepen</title>
    <desc>Created with Sketch.</desc>
    <defs></defs>
    <g id="Page-1" stroke="none" stroke-width="1" fill="none" fill-rule="evenodd" sketch:type="MSPage">
        <g id="Desktop-HD-Copy-11" sketch:type="MSArtboardGroup" transform="translate(-964.000000, -4498.000000)" fill="#FFFFFF">
            <g id="Group" sketch:type="MSLayerGroup" transform="translate(419.000000, 4363.000000)">
                <g id="Codepen-+-Fill-7" transform="translate(523.000000, 135.000000)" sketch:type="MSShapeGroup">
                    <path d="M47.8928799,19.0144369 C47.8928799,19.0519093 47.8902419,19.0888407 47.8853042,19.125772 C47.8834779,19.1377443 47.8805694,19.1502577 47.8785403,19.1622299 C47.8741437,19.1861744 47.86995,19.2101189 47.8636595,19.2335223 C47.8600746,19.2475914 47.8548664,19.2610517 47.8504021,19.2746473 C47.8436382,19.2954128 47.8369418,19.3163135 47.8286222,19.3371465 C47.8228728,19.351148 47.8157706,19.3646759 47.8096154,19.3782039 C47.800484,19.3974813 47.7910821,19.4161499 47.7807333,19.4349537 C47.77309,19.4479406 47.7645674,19.4609951 47.7564506,19.4739819 C47.7450195,19.4917036 47.7333855,19.5088841 47.7206016,19.5255235 C47.7111997,19.5385103 47.7015948,19.5504826 47.6912459,19.5624548 C47.6779209,19.578012 47.6638519,19.5936368 47.6490388,19.6081793 C47.6378106,19.6196781 47.626853,19.6311093 47.6152189,19.6415258 C47.5998647,19.6555949 47.5834959,19.6691228 47.5668566,19.6821097 C47.5542756,19.6920527 47.5418299,19.7019282 47.5285048,19.7112625 C47.5236348,19.7144415 47.5192382,19.7185676 47.5142329,19.721679 L38.4716854,25.7502822 C38.3288304,25.8455191 38.1646012,25.8933404 37.9998985,25.8933404 C37.835737,25.8933404 37.6712373,25.8455191 37.5283822,25.7502822 L28.4855642,19.721679 C28.4808294,19.7185676 28.4764329,19.7144415 28.4717657,19.7112625 C28.4584407,19.7019282 28.4457244,19.6920527 28.4332111,19.6821097 C28.4165717,19.6691228 28.4004058,19.6555949 28.3850516,19.6415258 C28.37335,19.6311093 28.3621894,19.6196781 28.3509612,19.6081793 C28.3361481,19.5936368 28.3224173,19.578012 28.3085511,19.5624548 C28.2986757,19.5504826 28.2888003,19.5385103 28.2794661,19.5255235 C28.2669527,19.5088841 28.2549805,19.4917036 28.2437523,19.4739819 C28.2351621,19.4609951 28.2271129,19.4479406 28.2193344,19.4349537 C28.2089179,19.4161499 28.1995836,19.3974813 28.1904522,19.3782039 C28.1839588,19.3646759 28.1773978,19.351148 28.1714455,19.3371465 C28.1631258,19.3163135 28.1560913,19.2954128 28.1495979,19.2746473 C28.1449307,19.2610517 28.1402636,19.2475914 28.1363405,19.2335223 C28.13005,19.2101189 28.125924,19.1861744 28.1214597,19.1622299 C28.1194306,19.1502577 28.1163191,19.1377443 28.1146958,19.125772 C28.1097581,19.0888407 28.1069172,19.0519093 28.1069172,19.0144369 L28.1069172,12.9858337 C28.1069172,12.9483612 28.1097581,12.9114299 28.1146958,12.874972 C28.1163191,12.8625263 28.1194306,12.850554 28.1214597,12.8380406 C28.125924,12.8140961 28.13005,12.7901516 28.1363405,12.7667483 C28.1402636,12.7526792 28.1449307,12.7391512 28.1495979,12.7256232 C28.1560913,12.7047902 28.1631258,12.6840247 28.1714455,12.6636651 C28.1773978,12.6496637 28.1839588,12.6355946 28.1904522,12.6220667 C28.1995836,12.6027893 28.2089179,12.5840531 28.2193344,12.5658579 C28.2271129,12.55233 28.2351621,12.5393431 28.2437523,12.5262886 C28.2549805,12.5086346 28.2669527,12.4914541 28.2794661,12.4747471 C28.2888003,12.4623014 28.2986757,12.449788 28.3085511,12.4378834 C28.3224173,12.4222586 28.3361481,12.4066338 28.3509612,12.3920236 C28.3621894,12.3805924 28.37335,12.3691613 28.3850516,12.3587448 C28.4004058,12.3446757 28.4165717,12.3311477 28.4332111,12.3180932 C28.4457244,12.3082178 28.4584407,12.2983424 28.4717657,12.2890081 C28.4764329,12.285829 28.4808294,12.281703 28.4855642,12.2785916 L37.5283822,6.24998837 C37.8140923,6.0595146 38.1859077,6.0595146 38.4716854,6.24998837 L47.5142329,12.2785916 C47.5192382,12.281703 47.5236348,12.285829 47.5285048,12.2890081 C47.5418299,12.2983424 47.5542756,12.3082178 47.5668566,12.3180932 C47.5834959,12.3311477 47.5998647,12.3446757 47.6152189,12.3587448 C47.626853,12.3691613 47.6378106,12.3805924 47.6490388,12.3920236 C47.6638519,12.4066338 47.6779209,12.4222586 47.6912459,12.4378834 C47.7015948,12.449788 47.7111997,12.4623014 47.7206016,12.4747471 C47.7333855,12.4914541 47.7450195,12.5086346 47.7564506,12.5262886 C47.7645674,12.5393431 47.77309,12.55233 47.7807333,12.5658579 C47.7910821,12.5840531 47.800484,12.6027893 47.8096154,12.6220667 C47.8157706,12.6355946 47.8228728,12.6496637 47.8286222,12.6636651 C47.8369418,12.6840247 47.8436382,12.7047902 47.8504021,12.7256232 C47.8548664,12.7391512 47.8600746,12.7526792 47.8636595,12.7667483 C47.86995,12.7901516 47.8741437,12.8140961 47.8785403,12.8380406 C47.8805694,12.850554 47.8834779,12.8625263 47.8853042,12.874972 C47.8902419,12.9114299 47.8928799,12.9483612 47.8928799,12.9858337 L47.8928799,19.0144369 Z M37.9998985,0 C29.1636521,0 22,7.1633967 22,16.0001353 C22,24.8369415 29.1636521,32 37.9998985,32 C46.8366861,32 54,24.8369415 54,16.0001353 C54,7.1633967 46.8366861,0 37.9998985,0 Z M29.9105431,14.4524682 L29.9105431,17.2981437 L32.0378114,15.8753398 L29.9105431,14.4524682 Z M37.2529128,12.38691 L37.2529128,8.42132177 L30.5912825,12.8620798 L33.5670231,14.8527202 L37.2529128,12.38691 Z M45.6151065,12.8620731 L38.9534085,8.421315 L38.9534085,12.3869032 L42.6395688,14.8527134 L45.6151065,12.8620731 Z M30.5912622,18.8885591 L37.2528925,23.3293172 L37.2528925,19.3636613 L33.5670705,16.8984599 L30.5912622,18.8885591 Z M38.9533882,19.3636884 L38.9533882,23.3293443 L45.6150862,18.8885862 L42.6395485,16.898487 L38.9533882,19.3636884 Z M38.1030694,13.8638867 L35.0960116,15.8752924 L38.1030694,17.8867658 L41.1103301,15.8752924 L38.1030694,13.8638867 Z M46.2957918,17.298164 L46.2957918,14.4524885 L44.1688616,15.8752924 L46.2957918,17.298164 Z" id="icon-codepen"></path>
                </g>
            </g>
        </g>
    </g>
</svg>