<?xml version="1.0" encoding="UTF-8" standalone="no"?>
<svg width="28px" height="32px" viewBox="0 0 28 32" version="1.1" xmlns="http://www.w3.org/2000/svg" xmlns:xlink="http://www.w3.org/1999/xlink" xmlns:sketch="http://www.bohemiancoding.com/sketch/ns">
    <!-- Generator: Sketch 3.4.2 (15857) - http://www.bohemiancoding.com/sketch -->
    <title>icon-instagram</title>
    <desc>Created with Sketch.</desc>
    <defs></defs>
    <g id="Page-1" stroke="none" stroke-width="1" fill="none" fill-rule="evenodd" sketch:type="MSPage">
        <g id="Desktop-HD-Copy-11" sketch:type="MSArtboardGroup" transform="translate(-965.000000, -4363.000000)" fill="#FFFFFF">
            <g id="Group" sketch:type="MSLayerGroup" transform="translate(419.000000, 4363.000000)">
                <g id="Shape-+-Instagram" transform="translate(518.000000, 0.000000)" sketch:type="MSShapeGroup">
                    <path d="M51,32 L33,32 C30.238,32 28,29.762 28,27 L28,5 C28,2.24 30.238,0 33,0 L51,0 C53.76,0 56,2.24 56,5 L56,27 C56,29.762 53.76,32 51,32 L51,32 Z M42,7.994 C37.586,7.994 34.008,11.576 34.008,15.996 C34.008,20.412 37.586,23.996 42,23.996 C46.412,23.996 49.99,20.412 49.99,15.996 C49.99,11.576 46.412,7.994 42,7.994 L42,7.994 Z M52,4 L48,4 L48,7.998 L52,7.998 L52,4 L52,4 Z M54,18.002 L54,18.002 L54,18.002 L54,13.998 L52,13.998 L52,14.554 C51.968,14.536 51.932,14.528 51.9,14.512 C51.93,14.842 51.994,15.162 51.994,15.5 C51.994,21.294 47.518,25.996 41.998,25.996 C36.476,25.996 32.002,21.294 32.002,15.5 C32.002,15.162 32.066,14.842 32.096,14.512 C32.064,14.53 32.028,14.538 31.998,14.554 L31.998,13.998 L29.998,13.998 L29.998,18 L29.998,18 L29.998,18.002 L29.998,26 C29.998,28.208 31.79,30 33.998,30 L49.998,30 C52.206,30 53.998,28.208 53.998,26 L53.998,18.002 L54,18.002 Z" id="icon-instagram"></path>
                </g>
            </g>
        </g>
    </g>
</svg>