<svg width="29" height="28" viewBox="0 0 29 28" xmlns="http://www.w3.org/2000/svg" xmlns:sketch="http://www.bohemiancoding.com/sketch/ns"><title>ic-github</title><desc>Created with Sketch.</desc><path d="M14.372 0c-7.936 0-14.372 6.409-14.372 14.315 0 6.324 4.118 11.69 9.829 13.583.719.132.981-.31.981-.69l-.019-2.434c-3.998.865-4.841-1.919-4.841-1.919-.654-1.654-1.596-2.094-1.596-2.094-1.305-.888.099-.87.099-.87 1.443.101 2.201 1.475 2.201 1.475 1.283 2.187 3.364 1.555 4.183 1.189.131-.925.502-1.555.912-1.914-3.191-.361-6.547-1.589-6.547-7.074 0-1.563.56-2.841 1.48-3.842-.147-.362-.641-1.817.141-3.788 0 0 1.207-.386 3.952 1.467 1.147-.317 2.376-.476 3.598-.482 1.221.005 2.45.164 3.599.482 2.743-1.852 3.949-1.467 3.949-1.467.784 1.97.29 3.426.143 3.788.921 1.001 1.477 2.279 1.477 3.842 0 5.499-3.36 6.709-6.562 7.064.516.442.975 1.316.975 2.65 0 1.914-.017 3.458-.017 3.927 0 .383.259.828.988.688 5.706-1.896 9.821-7.258 9.821-13.581 0-7.906-6.436-14.315-14.374-14.315" sketch:type="MSShapeGroup" fill="#000"/></svg>