<svg width="44" height="26" viewBox="0 0 44 26" xmlns="http://www.w3.org/2000/svg" xmlns:sketch="http://www.bohemiancoding.com/sketch/ns"><title>Eurotrip logo</title><desc>Created with Sketch.</desc><path d="M25.252 14.802c-4.289.254-8.495-1.204-11.702-4.025-.4.065-.794.248-1.194.271-6.436.381-11.985-4.571-12.356-10.82l3.854-.228c.257 4.326 3.963 7.458 8.274 7.203.51-.03 1.021-.181 1.525-.313l1.073-.315.782.769c2.507 2.516 5.975 3.83 9.517 3.621 1.97-.117 3.83-.685 5.529-1.681l.685-.404.77.195c.655.167 1.334.367 2.005.328 3.579-.212 6.315-3.361 6.115-6.726l3.854-.228c.343 5.769-4.036 10.462-9.741 10.799-.802.047-1.609-.067-2.4-.205-2.045 1.075-4.261 1.62-6.588 1.758zm3.866 7.955c0 1.791 1.455 3.243 3.249 3.243 1.795 0 3.249-1.452 3.249-3.243 0-1.79-3.249-5.044-3.249-5.044s-3.249 3.254-3.249 5.044z" sketch:type="MSShapeGroup" fill="#000"/></svg>