<svg width="18" height="18" viewBox="0 0 18 18" xmlns="http://www.w3.org/2000/svg" xmlns:sketch="http://www.bohemiancoding.com/sketch/ns"><title>Shape</title><desc>Created with Sketch.</desc><path d="M7.586 9l-7.293-7.293c-.391-.391-.391-1.024 0-1.414.391-.391 1.024-.391 1.414 0l7.293 7.293 7.293-7.293c.391-.391 1.024-.391 1.414 0 .391.391.391 1.024 0 1.414l-7.293 7.293 7.293 7.293c.391.391.391 1.024 0 1.414-.391.391-1.024.391-1.414 0l-7.293-7.293-7.293 7.293c-.391.391-1.024.391-1.414 0-.391-.391-.391-1.024 0-1.414l7.293-7.293z" fill="#000" sketch:type="MSShapeGroup"/></svg>