<?xml version="1.0" encoding="UTF-8" standalone="no"?>
<svg width="98px" height="26px" viewBox="0 0 98 26" version="1.1" xmlns="http://www.w3.org/2000/svg" xmlns:xlink="http://www.w3.org/1999/xlink" xmlns:sketch="http://www.bohemiancoding.com/sketch/ns">
    <!-- Generator: Sketch 3.4.2 (15857) - http://www.bohemiancoding.com/sketch -->
    <title>logo</title>
    <desc>Created with Sketch.</desc>
    <defs></defs>
    <g id="Page-1" stroke="none" stroke-width="1" fill="none" fill-rule="evenodd" sketch:type="MSPage">
        <g id="Desktop-HD-Copy-11" sketch:type="MSArtboardGroup" transform="translate(-505.000000, -63.000000)" fill="#FFFFFF">
            <g id="Logo-+-MAHDI-+-Mahdi" sketch:type="MSLayerGroup" transform="translate(220.000000, 17.000000)">
                <path d="M296.213132,62.6028571 L296.138872,62.6028571 C295.42103,62.6028571 294.851716,62.3180981 294.430912,61.7485714 L289.121383,54.32 L289.121383,69.9571429 C289.121383,70.5266695 288.917172,71.0095218 288.508745,71.4057143 C288.100317,71.8019067 287.61145,72 287.042127,72 C286.472804,72 285.990124,71.8019067 285.594073,71.4057143 C285.198022,71.0095218 285,70.5266695 285,69.9571429 L285,48.0428571 C285,47.4733305 285.198022,46.9904782 285.594073,46.5942857 C285.990124,46.1980933 286.472804,46 287.042127,46 L287.153515,46 C287.871357,46 288.415919,46.2847591 288.787217,46.8542857 L296.176002,57.1057143 L303.564787,46.8542857 C303.985591,46.2847591 304.542529,46 305.235618,46 L305.272748,46 C305.842071,46.024762 306.330939,46.2352361 306.739366,46.6314286 C307.147793,47.027621 307.352004,47.4980925 307.352004,48.0428571 L307.352004,69.9571429 C307.352004,70.5019075 307.147793,70.9785694 306.739366,71.3871429 C306.330939,71.7957163 305.842071,72 305.272748,72 C304.703425,72 304.220745,71.8019067 303.824694,71.4057143 C303.428644,71.0095218 303.230621,70.5266695 303.230621,69.9571429 L303.230621,54.32 L297.883962,61.7485714 C297.463158,62.3180981 296.90622,62.6028571 296.213132,62.6028571 L296.213132,62.6028571 Z M314.69814,69.2885714 C313.002548,67.4809433 312.154765,65.2957271 312.154765,62.7328571 C312.154765,60.1699872 313.002548,57.9785805 314.69814,56.1585714 C316.393733,54.3385623 318.491533,53.4285714 320.991603,53.4285714 C322.749079,53.4285714 324.39514,53.9733279 325.929837,55.0628571 C326.053603,54.5923786 326.288754,54.2023825 326.635299,53.8928571 C326.981843,53.5833318 327.408829,53.4285714 327.916269,53.4285714 C328.423709,53.4285714 328.869259,53.6266647 329.252934,54.0228571 C329.636608,54.4190496 329.828442,54.8895211 329.828442,55.4342857 L329.828442,70.0314286 C329.828442,70.5761932 329.636608,71.0404743 329.252934,71.4242857 C328.869259,71.8080972 328.423709,72 327.916269,72 C327.408829,72 326.981843,71.8514301 326.635299,71.5542857 C326.288754,71.2571414 326.053603,70.8733357 325.929837,70.4028571 C324.419893,71.4676244 322.773832,72 320.991603,72 C318.491533,72 316.393733,71.0961995 314.69814,69.2885714 L314.69814,69.2885714 Z M317.482859,66.5028571 C318.386349,67.5181003 319.549731,68.0257143 320.973039,68.0257143 C322.396346,68.0257143 323.572104,67.5181003 324.500348,66.5028571 C325.428592,65.487614 325.892707,64.2371503 325.892707,62.7514286 C325.892707,61.2657069 325.422404,60.0028623 324.481783,58.9628571 C323.541163,57.9228519 322.371593,57.4028571 320.973039,57.4028571 C319.574484,57.4028571 318.417291,57.9166615 317.501423,58.9442857 C316.585556,59.9719099 316.127629,61.2347544 316.127629,62.7328571 C316.127629,64.2309599 316.579368,65.487614 317.482859,66.5028571 L317.482859,66.5028571 Z M338.80828,71.4057143 C338.399853,71.8019067 337.917173,72 337.360226,72 C336.80328,72 336.3206,71.8019067 335.912173,71.4057143 C335.503746,71.0095218 335.299535,70.5266695 335.299535,69.9571429 L335.299535,48.0428571 C335.299535,47.4733305 335.497558,46.9904782 335.893608,46.5942857 C336.289659,46.1980933 336.772339,46 337.341662,46 C337.910985,46 338.399853,46.1980933 338.80828,46.5942857 C339.216707,46.9904782 339.420918,47.4733305 339.420918,48.0428571 L339.420918,54.5057143 C340.782342,53.7876155 342.106617,53.4285714 343.393782,53.4285714 C345.621568,53.4285714 347.527534,54.2271349 349.111737,55.8242857 C350.69594,57.4214366 351.48803,59.3342746 351.48803,61.5628571 L351.48803,69.9571429 C351.48803,70.5266695 351.290007,71.0095218 350.893956,71.4057143 C350.497906,71.8019067 350.015226,72 349.445903,72 C348.87658,72 348.3939,71.8019067 347.99785,71.4057143 C347.601799,71.0095218 347.403776,70.5266695 347.403776,69.9571429 L347.403776,61.5628571 C347.403776,60.4733279 347.01392,59.5385753 346.234195,58.7585714 C345.45447,57.9785675 344.507675,57.5761906 343.393782,57.5514286 C342.304643,57.5761906 341.376413,57.9785675 340.609064,58.7585714 C339.841716,59.5385753 339.445671,60.4733279 339.420918,61.5628571 L339.420918,69.9571429 C339.420918,70.5266695 339.216707,71.0095218 338.80828,71.4057143 L338.80828,71.4057143 Z M373.073358,69.9942857 C373.073358,70.5390503 372.875336,71.0095218 372.479285,71.4057143 C372.083234,71.8019067 371.625307,72 371.105491,72 C370.585674,72 370.146312,71.8452396 369.787391,71.5357143 C369.42847,71.2261889 369.199506,70.8485737 369.100494,70.4028571 C367.541044,71.4676244 365.857853,72 364.050871,72 C361.550801,72 359.42206,71.0900091 357.664585,69.27 C355.907109,67.4499909 355.028385,65.2709651 355.028385,62.7328571 C355.028385,60.1947492 355.907109,58.009533 357.664585,56.1771429 C359.42206,54.3447527 361.550801,53.4285714 364.050871,53.4285714 C365.882606,53.4285714 367.541044,53.9485662 369.026234,54.9885714 L369.026234,48.0057143 C369.026234,47.4609497 369.224257,46.9904782 369.620308,46.5942857 C370.016358,46.1980933 370.49285,46 371.049796,46 C371.606743,46 372.083234,46.1980933 372.479285,46.5942857 C372.875336,46.9904782 373.073358,47.4609497 373.073358,48.0057143 L373.073358,69.9942857 Z M367.559616,66.41 C368.537367,65.3823758 369.026234,64.1566738 369.026234,62.7328571 C369.026234,61.3090405 368.543555,60.0771481 367.578181,59.0371429 C366.612807,57.9971377 365.437049,57.4771429 364.050871,57.4771429 C362.664694,57.4771429 361.488936,57.9971377 360.523562,59.0371429 C359.558188,60.0771481 359.075508,61.3090405 359.075508,62.7328571 C359.075508,64.1566738 359.564376,65.3823758 360.542127,66.41 C361.519877,67.4376242 362.689447,67.9514286 364.050871,67.9514286 C365.412296,67.9514286 366.581866,67.4376242 367.559616,66.41 L367.559616,66.41 Z M380.995003,53.4657143 C381.564326,53.4657143 382.040817,53.6576171 382.424492,54.0414286 C382.808166,54.42524 383,54.9142827 383,55.5085714 L383,69.9942857 C383,70.5638124 382.808166,71.0404743 382.424492,71.4242857 C382.040817,71.8080972 381.570514,72 381.013568,72 C380.456621,72 379.98013,71.8019067 379.584079,71.4057143 C379.188028,71.0095218 378.990006,70.5390503 378.990006,69.9942857 L378.990006,55.5085714 C378.990006,54.9142827 379.18184,54.42524 379.565514,54.0414286 C379.949189,53.6576171 380.42568,53.4657143 380.995003,53.4657143 L380.995003,53.4657143 Z M383,48.0057143 L383,48.7857143 C383,49.3552409 382.808166,49.8380933 382.424492,50.2342857 C382.040817,50.6304782 381.570514,50.8285714 381.013568,50.8285714 C380.456621,50.8285714 379.98013,50.6304782 379.584079,50.2342857 C379.188028,49.8380933 378.990006,49.3552409 378.990006,48.7857143 L378.990006,48.0057143 C378.990006,47.4609497 379.188028,46.9904782 379.584079,46.5942857 C379.98013,46.1980933 380.456621,46 381.013568,46 C381.570514,46 382.040817,46.1919028 382.424492,46.5757143 C382.808166,46.9595257 383,47.4361876 383,48.0057143 L383,48.0057143 Z" id="logo" sketch:type="MSShapeGroup"></path>
            </g>
        </g>
    </g>
</svg>