<svg width="44" height="44" viewBox="0 0 44 44" xmlns="http://www.w3.org/2000/svg" xmlns:sketch="http://www.bohemiancoding.com/sketch/ns"><title>Imported Layers</title><desc>Created with Sketch.</desc><path d="M39.998 0h-35.996c-2.209 0-4.002 1.792-4.002 4.002v35.997c0 2.208 1.792 4.001 4.002 4.001h35.996c2.209 0 4.002-1.791 4.002-4.001v-35.997c0-2.209-1.792-4.002-4.002-4.002zm-12.145 30.146c-1.432 1.216-3.282 1.823-5.551 1.823-2.417 0-4.421-.741-6.012-2.224l.032.278v.185c.042.33.064.546.064.649 0 .762-.371 1.143-1.114 1.143-.805 0-1.208-.432-1.208-1.297l.031-.248.128-1.606c.063-.804.095-1.319.095-1.545 0-.412-.053-1.03-.159-1.854-.106-.824-.159-1.442-.159-1.854 0-.927.403-1.391 1.209-1.391.827 0 1.24.464 1.24 1.391v.556c-.021.165-.032.402-.032.711 0 1.545.51 2.77 1.527 3.677 1.018.906 2.397 1.359 4.136 1.359 1.611 0 2.894-.371 3.848-1.112.955-.742 1.432-1.751 1.432-3.028 0-1.957-1.272-3.152-3.817-3.584l-1.813-.31c-1.803-.308-3.202-.669-4.199-1.081-.912-.391-1.638-1.004-2.179-1.838-.541-.835-.811-1.777-.811-2.828 0-1.812.678-3.285 2.035-4.418 1.358-1.133 3.118-1.7 5.281-1.7 2.078 0 3.774.649 5.089 1.947v-.433c0-.803.329-1.205.986-1.205.721 0 1.082.443 1.082 1.329v.185c0 .042-.032.351-.095.927-.064.577-.096 1.267-.096 2.071 0 .103.021.432.064.988l.095 1.236c.021.103.032.247.032.433 0 .989-.392 1.483-1.177 1.483-.827 0-1.241-.412-1.241-1.236v-.155l.064-.834c.021-.288.032-.515.032-.679 0-1.236-.43-2.205-1.288-2.905-.859-.7-2.041-1.051-3.547-1.051-1.378 0-2.476.33-3.292.989-.817.659-1.225 1.545-1.225 2.658 0 1.297.604 2.255 1.813 2.873.679.33 1.866.628 3.563.896 2.523.392 4.252.927 5.185 1.607 1.399 1.009 2.099 2.441 2.099 4.295 0 1.936-.716 3.512-2.147 4.727z" sketch:type="MSShapeGroup" fill="#1A1918"/></svg>