<?xml version="1.0" encoding="UTF-8" standalone="no"?>
<svg width="28px" height="28px" viewBox="0 0 28 28" version="1.1" xmlns="http://www.w3.org/2000/svg" xmlns:xlink="http://www.w3.org/1999/xlink" xmlns:sketch="http://www.bohemiancoding.com/sketch/ns">
    <!-- Generator: Sketch 3.4.2 (15857) - http://www.bohemiancoding.com/sketch -->
    <title>icon-linkedin</title>
    <desc>Created with Sketch.</desc>
    <defs></defs>
    <g id="Page-1" stroke="none" stroke-width="1" fill="none" fill-rule="evenodd" sketch:type="MSPage">
        <g id="Desktop-HD-Copy-11" sketch:type="MSArtboardGroup" transform="translate(-699.000000, -4365.000000)" fill="#FFFFFF">
            <g id="Group" sketch:type="MSLayerGroup" transform="translate(419.000000, 4363.000000)">
                <g id="Shape-+-LinkedIn" transform="translate(258.000000, 2.000000)" sketch:type="MSShapeGroup">
                    <path d="M47.3338096,28 L24.6661904,28 C23.1920851,28 22,26.806 22,25.332 L22,2.666 C22,1.194 23.1940853,0 24.6661904,0 L47.3338096,0 C48.8059147,0 50,1.194 50,2.666 L50,25.332 C50,26.806 48.8059147,28 47.3338096,28 L47.3338096,28 Z M28.8984927,5.99 C27.7484106,5.99 26.998357,6.848 26.998357,7.974 C26.998357,9.078 27.726409,9.958 28.8544896,9.958 L28.8764912,9.958 C30.0485749,9.958 30.778627,9.078 30.778627,7.974 C30.7546253,6.848 30.0465748,5.99 28.8984927,5.99 L28.8984927,5.99 Z M30.9906422,11.2 L27.1963712,11.2 L27.1963712,23.006 L30.9906422,23.006 L30.9906422,11.2 L30.9906422,11.2 Z M45.9897136,16.47 C45.9897136,12.966 44.175584,11.012 41.5913994,11.012 C39.5032502,11.012 38.5731838,12.122 38.0511465,12.898 L38.0511465,11.28 L34.0008572,11.28 C34.0508608,12.348 34.0008572,23.002 34.0008572,23.002 L38.0511465,23.002 L38.0511465,16.634 C38.0511465,16.294 38.0771484,15.954 38.1811558,15.71 C38.4651761,15.028 39.1112222,14.326 40.1972998,14.326 C41.6174012,14.326 42.061433,15.37 42.061433,16.902 L42.061433,23.002 L45.9877134,23.002 L45.9877134,16.47 L45.9897136,16.47 Z M38.0271448,12.936 C38.0331452,12.924 38.0471462,12.912 38.0531467,12.9 L38.0531467,12.936 L38.0271448,12.936 L38.0271448,12.936 Z" id="icon-linkedin"></path>
                </g>
            </g>
        </g>
    </g>
</svg>