<?xml version="1.0" encoding="UTF-8" standalone="no"?>
<svg width="33px" height="32px" viewBox="0 0 33 32" version="1.1" xmlns="http://www.w3.org/2000/svg" xmlns:xlink="http://www.w3.org/1999/xlink" xmlns:sketch="http://www.bohemiancoding.com/sketch/ns">
    <!-- Generator: Sketch 3.4.2 (15857) - http://www.bohemiancoding.com/sketch -->
    <title>icon-github</title>
    <desc>Created with Sketch.</desc>
    <defs></defs>
    <g id="Page-1" stroke="none" stroke-width="1" fill="none" fill-rule="evenodd" sketch:type="MSPage">
        <g id="Desktop-HD-Copy-11" sketch:type="MSArtboardGroup" transform="translate(-697.000000, -4497.000000)" fill="#FFFFFF">
            <g id="Group" sketch:type="MSLayerGroup" transform="translate(419.000000, 4363.000000)">
                <g id="GitHub-+-Fill-3" transform="translate(264.000000, 134.000000)" sketch:type="MSShapeGroup">
                    <path d="M30.4984806,0 C21.3882562,0 14,7.3446728 14,16.4054189 C14,23.6534115 18.727309,29.801667 25.2839559,31.9709287 C26.1094877,32.1219915 26.4103257,31.6154276 26.4103257,31.1803667 C26.4103257,30.7916318 26.3961448,29.7593694 26.3880414,28.3907406 C21.7984898,29.3817125 20.830136,26.1912664 20.830136,26.1912664 C20.0795605,24.2959319 18.9977593,23.7913822 18.9977593,23.7913822 C17.499647,22.7742261 19.1112066,22.7943678 19.1112066,22.7943678 C20.7673348,22.9101826 21.6384481,24.4852639 21.6384481,24.4852639 C23.1102244,26.9918991 25.5007213,26.2678048 26.4407133,25.8478503 C26.5906259,24.7883966 27.0170662,24.0653094 27.4880751,23.6554257 C23.8243347,23.2415136 19.9721907,21.8336084 19.9721907,15.5473822 C19.9721907,13.7567847 20.6153964,12.2914756 21.6708616,11.1454126 C21.5006906,10.7304934 20.934467,9.06175317 21.8329292,6.80386802 C21.8329292,6.80386802 23.2175942,6.36276467 26.3698088,8.4857004 C27.685595,8.12113554 29.0976089,7.93986019 30.5005065,7.93281059 C31.9023911,7.93986019 33.3133921,8.12113554 34.6312041,8.4857004 C37.7813929,6.36276467 39.164032,6.80386802 39.164032,6.80386802 C40.0645201,9.06175317 39.4982964,10.7304934 39.3291384,11.1454126 C40.3866294,12.2914756 41.0247706,13.7567847 41.0247706,15.5473822 C41.0247706,21.8497218 37.166549,23.2364782 33.4916664,23.6423336 C34.0832131,24.1488974 34.6109457,25.1499402 34.6109457,26.6807098 C34.6109457,28.8731344 34.5906873,30.6425832 34.5906873,31.1803667 C34.5906873,31.6194559 34.8884864,32.1300481 35.7251604,31.9699216 C42.2767427,29.7956245 47,23.6513973 47,16.4054189 C47,7.3446728 39.6117438,0 30.4984806,0" id="icon-github"></path>
                </g>
            </g>
        </g>
    </g>
</svg>