<svg width="30" height="30" viewBox="0 0 30 30" xmlns="http://www.w3.org/2000/svg" xmlns:sketch="http://www.bohemiancoding.com/sketch/ns"><title>ic-instagram</title><desc>Created with Sketch.</desc><path d="M3.84 0h22.238c2.112 0 3.84 1.728 3.84 3.84v22.238c0 2.112-1.728 3.84-3.84 3.84h-22.238c-2.112 0-3.84-1.728-3.84-3.84v-22.238c0-2.112 1.728-3.84 3.84-3.84zm17.954 3.324c-.741 0-1.347.606-1.347 1.347v3.224c0 .741.606 1.347 1.347 1.347h3.382c.741 0 1.347-.606 1.347-1.347v-3.224c0-.741-.606-1.347-1.347-1.347h-3.382zm4.742 9.328h-2.633c.249.814.384 1.675.384 2.567 0 4.976-4.163 9.01-9.299 9.01-5.136 0-9.299-4.034-9.299-9.01 0-.892.135-1.753.384-2.567h-2.748v12.638c0 .654.535 1.189 1.189 1.189h20.834c.654 0 1.189-.535 1.189-1.189v-12.638zm-11.549-3.58c-3.318 0-6.009 2.607-6.009 5.822s2.69 5.822 6.009 5.822c3.318 0 6.008-2.606 6.008-5.822 0-3.215-2.69-5.822-6.008-5.822z" sketch:type="MSShapeGroup" fill="#000"/></svg>