<svg width="44" height="46" viewBox="0 0 44 46" xmlns="http://www.w3.org/2000/svg" xmlns:sketch="http://www.bohemiancoding.com/sketch/ns"><title>Poop icon</title><desc>Created with Sketch.</desc><path d="M37.924 27.377c.153-.558.23-1.132.23-1.717 0-3.214-2.375-5.944-5.498-6.562l.007-.292c0-3.693-3.068-6.697-6.838-6.697h-.509l.026-.22.003-.031c.067-.816.069-1.532.007-2.19-.053-.74-.196-1.425-.344-2.055l-.01-.038c-.209-.762-.399-1.329-.607-1.818-.207-.515-.453-1.032-.75-1.58-.226-.416-.483-.842-.789-1.305-.414-.622-.857-1.202-1.356-1.778-.35-.4-.573-.616-.597-.64-.365-.352-.931-.406-1.359-.13-.428.276-.6.808-.415 1.276.001.002.094.237.217.64.18.601.321 1.21.419 1.806.072.451.117.833.143 1.202.033.47.04.892.02 1.314-.011.43-.076.884-.139 1.277-.077.343-.9 3.787-3.278 4.461-3.086.726-5.238 3.398-5.238 6.507l.007.292c-3.123.617-5.498 3.347-5.498 6.562 0 .585.077 1.159.23 1.717-3.446 1.007-5.907 4.142-5.907 7.766 0 3.704 3.02 5.898 4.82 6.877 3.862 2.099 9.929 3.163 18.033 3.163 14.243 0 20.877-3.19 20.877-10.039 0-3.624-2.461-6.76-5.907-7.766zm-22.639-5.726c.107.045 2.66 1.115 6.681 1.115 4.02 0 6.574-1.069 6.681-1.115.275-.118.401-.431.281-.7-.12-.269-.439-.393-.715-.275-.024.01-2.45 1.026-6.247 1.026-3.775 0-6.219-1.015-6.247-1.027-.274-.117-.594.007-.714.276s.006.583.281.7zm7.669 21.403c-7.731 0-13.443-.974-16.978-2.895-2.422-1.316-3.702-3.051-3.702-5.016 0-3.003 2.291-5.552 5.33-5.928.349-.043.655-.249.821-.553.166-.304.172-.667.015-.976-.325-.641-.49-1.322-.49-2.026 0-2.465 2.049-4.513 4.568-4.563.325-.007.631-.156.832-.407.201-.251.277-.577.206-.888-.076-.335-.115-.67-.115-.995 0-2.126 1.476-3.952 3.59-4.442l.045-.011c3.659-1.009 4.731-5.585 4.841-6.103l.009-.05c.076-.468.156-1.022.169-1.563.011-.228.015-.46.012-.701.097.207.186.411.269.619.176.415.336.895.517 1.553.127.544.249 1.128.29 1.719l.002.029c.052.532.05 1.126-.006 1.816-.051.448-.122.875-.212 1.27-.071.315.007.645.213.897s.518.399.848.399h1.796c2.573 0 4.665 2.049 4.665 4.569 0 .325-.039.659-.115.995-.071.312.005.637.206.888.201.251.506.4.832.407 2.519.051 4.568 2.098 4.568 4.563 0 .704-.165 1.386-.489 2.026-.156.309-.151.672.015.976.166.304.473.51.822.553 3.038.376 5.33 2.924 5.33 5.928 0 3.396-1.939 7.911-18.704 7.911zm8.918-14.094c-.033.016-3.436 1.6-9.906 1.6-6.462 0-9.864-1.581-9.906-1.6-.269-.129-.594-.019-.726.244-.132.264-.021.583.249.712.145.07 3.634 1.709 10.383 1.709 6.749 0 10.238-1.639 10.383-1.709.269-.129.38-.447.249-.711-.132-.264-.456-.373-.726-.245z" sketch:type="MSShapeGroup" fill="#000"/></svg>